<svg width="180" height="83" viewBox="0 0 180 83" fill="none" xmlns="http://www.w3.org/2000/svg">
<path d="M48.6904 35.0337V16.1738H57.7701C59.5304 16.1738 61.0481 16.4612 62.3234 17.036C63.6167 17.6108 64.6135 18.437 65.3141 19.5147C66.0146 20.5745 66.3648 21.8318 66.3648 23.2867C66.3648 24.7416 66.0146 25.9989 65.3141 27.0587C64.6135 28.1184 63.6167 28.9447 62.3234 29.5374C61.0481 30.1122 59.5304 30.3996 57.7701 30.3996H52.2199L55.0489 27.6783V35.0337H48.6904ZM55.0489 28.3789L52.2199 25.496H57.366C58.2461 25.496 58.8927 25.2984 59.3058 24.9033C59.7369 24.5081 59.9525 23.9692 59.9525 23.2867C59.9525 22.6041 59.7369 22.0653 59.3058 21.6701C58.8927 21.275 58.2461 21.0774 57.366 21.0774H52.2199L55.0489 18.1945V28.3789Z" fill="#006DEA"/>
<path d="M25.3545 35.0337V16.1738H34.6497C36.7512 16.1738 38.6013 16.56 40.1999 17.3324C41.7985 18.0868 43.0468 19.1645 43.9449 20.5655C44.843 21.9665 45.2921 23.6369 45.2921 25.5768C45.2921 27.5347 44.843 29.2231 43.9449 30.642C43.0468 32.0431 41.7985 33.1297 40.1999 33.9021C38.6013 34.6565 36.7512 35.0337 34.6497 35.0337H25.3545ZM31.713 30.0762H34.3803C35.2784 30.0762 36.0597 29.9056 36.7243 29.5643C37.4068 29.2231 37.9367 28.7201 38.3139 28.0555C38.6911 27.373 38.8797 26.5468 38.8797 25.5768C38.8797 24.6248 38.6911 23.8166 38.3139 23.152C37.9367 22.4874 37.4068 21.9845 36.7243 21.6432C36.0597 21.3019 35.2784 21.1313 34.3803 21.1313H31.713V30.0762Z" fill="#006DEA"/>
<path d="M0.521484 35.0337L8.76594 16.1738H15.0166L23.2611 35.0337H16.6871L10.598 19.1914H13.0768L6.98772 35.0337H0.521484ZM5.42505 31.7467L7.04161 27.1664H15.7171L17.3337 31.7467H5.42505Z" fill="#006DEA"/>
<path d="M9.08008 44.6377C10.3552 44.6377 11.6123 44.7726 12.8516 45.042C14.0909 45.3114 15.2045 45.7244 16.1924 46.2812L14.2793 50.8877C13.3455 50.4208 12.4386 50.0704 11.5586 49.8369C10.6964 49.6034 9.85163 49.4873 9.02539 49.4873C8.41514 49.4873 7.9304 49.5408 7.57129 49.6484C7.21214 49.7562 6.9517 49.9005 6.79004 50.0801C6.64634 50.2597 6.57422 50.4573 6.57422 50.6729C6.57431 50.996 6.76258 51.2566 7.13965 51.4541C7.51685 51.6337 8.01137 51.7864 8.62207 51.9121C9.25053 52.0378 9.93279 52.1728 10.6689 52.3164C11.4233 52.4601 12.1689 52.6577 12.9053 52.9092C13.6415 53.1606 14.3152 53.4923 14.9258 53.9053C15.5544 54.3184 16.0574 54.8579 16.4346 55.5225C16.8118 56.187 17.001 57.0131 17.001 58.001C17.001 59.1505 16.6685 60.2107 16.0039 61.1807C15.3573 62.1325 14.3869 62.9044 13.0938 63.4971C11.8006 64.0718 10.1754 64.3594 8.21777 64.3594C6.63726 64.3594 5.11046 64.1795 3.6377 63.8203C2.1649 63.4611 0.951954 62.9947 0 62.4199L2.04785 57.7852C2.94589 58.306 3.9425 58.7285 5.03809 59.0518C6.15172 59.3571 7.2297 59.5098 8.27148 59.5098C8.88203 59.5098 9.35797 59.4742 9.69922 59.4023C10.0584 59.3126 10.3188 59.1954 10.4805 59.0518C10.642 58.8902 10.7235 58.7017 10.7236 58.4863C10.7236 58.1451 10.5344 57.8753 10.1572 57.6777C9.78004 57.4802 9.27703 57.3181 8.64844 57.1924C8.03781 57.0487 7.36425 56.9054 6.62793 56.7617C5.8915 56.6001 5.146 56.3931 4.3916 56.1416C3.65523 55.8901 2.97236 55.5586 2.34375 55.1455C1.73305 54.7324 1.2395 54.1929 0.862305 53.5283C0.485169 52.8458 0.295919 52.0018 0.295898 50.9961C0.295898 49.8286 0.619977 48.7684 1.2666 47.8164C1.93117 46.8466 2.91007 46.0747 4.20312 45.5C5.51433 44.9252 7.14021 44.6377 9.08008 44.6377ZM29.8584 44.6367C31.403 44.6367 32.8221 44.8794 34.1152 45.3643C35.4085 45.8492 36.5314 46.5414 37.4834 47.4395C38.4352 48.3195 39.1715 49.3611 39.6924 50.5645C40.2312 51.7499 40.501 53.0611 40.501 54.498C40.501 55.917 40.2312 57.2282 39.6924 58.4316C39.1715 59.635 38.4353 60.6859 37.4834 61.584C36.5314 62.4641 35.4085 63.1469 34.1152 63.6318C32.8221 64.1167 31.403 64.3594 29.8584 64.3594C28.3317 64.3594 26.9127 64.1168 25.6016 63.6318C24.3083 63.1469 23.1854 62.4641 22.2334 61.584C21.2815 60.6859 20.5359 59.635 19.9971 58.4316C19.4762 57.2283 19.2158 55.9169 19.2158 54.498C19.2158 53.0612 19.4763 51.7499 19.9971 50.5645C20.5358 49.3612 21.2816 48.3195 22.2334 47.4395C23.1854 46.5414 24.3083 45.8492 25.6016 45.3643C26.9127 44.8793 28.3317 44.6367 29.8584 44.6367ZM67.6592 55.252C67.6592 56.6889 67.9195 57.7135 68.4404 58.3242C68.9613 58.9167 69.6621 59.2129 70.542 59.2129C71.4399 59.2128 72.1407 58.9169 72.6436 58.3242C73.1644 57.7135 73.4248 56.6889 73.4248 55.252V45.0684H79.6748V55.4414C79.6747 58.2612 78.8665 60.4521 77.25 62.0146C75.6334 63.5773 73.3791 64.3594 70.4873 64.3594C67.5957 64.3593 65.3421 63.5772 63.7256 62.0146C62.1091 60.4521 61.2999 58.2612 61.2998 55.4414V45.0684H67.6592V55.252ZM122.495 44.6367C124.04 44.6367 125.459 44.8794 126.752 45.3643C128.045 45.8492 129.168 46.5414 130.12 47.4395C131.072 48.3195 131.808 49.3611 132.329 50.5645C132.868 51.7499 133.138 53.0611 133.138 54.498C133.138 55.917 132.868 57.2282 132.329 58.4316C131.808 59.635 131.072 60.6859 130.12 61.584C129.168 62.4641 128.045 63.1469 126.752 63.6318C125.459 64.1167 124.04 64.3594 122.495 64.3594C120.968 64.3594 119.549 64.1168 118.238 63.6318C116.945 63.1469 115.822 62.4641 114.87 61.584C113.918 60.6859 113.173 59.635 112.634 58.4316C112.113 57.2283 111.853 55.9169 111.853 54.498C111.853 53.0612 112.113 51.7499 112.634 50.5645C113.173 49.3612 113.918 48.3195 114.87 47.4395C115.822 46.5414 116.945 45.8492 118.238 45.3643C119.549 44.8793 120.968 44.6367 122.495 44.6367ZM167.149 44.6377C168.425 44.6377 169.682 44.7717 170.921 45.041C172.16 45.3104 173.274 45.7236 174.262 46.2803L172.35 50.8877C171.416 50.4207 170.508 50.0704 169.628 49.8369C168.766 49.6035 167.922 49.4873 167.096 49.4873C166.485 49.4873 166 49.5407 165.641 49.6484C165.281 49.7562 165.021 49.9005 164.859 50.0801C164.716 50.2597 164.644 50.4574 164.644 50.6729C164.644 50.9959 164.832 51.2566 165.209 51.4541C165.586 51.6337 166.081 51.7864 166.691 51.9121C167.32 52.0378 168.003 52.1718 168.739 52.3154C169.494 52.4591 170.239 52.6568 170.976 52.9082C171.712 53.1597 172.385 53.4922 172.996 53.9053C173.625 54.3184 174.128 54.8579 174.505 55.5225C174.882 56.187 175.07 57.0133 175.07 58.001C175.07 59.1504 174.738 60.2098 174.073 61.1797C173.427 62.1316 172.457 62.9043 171.164 63.4971C169.871 64.0718 168.245 64.3594 166.287 64.3594C164.707 64.3594 163.18 64.1795 161.707 63.8203C160.234 63.4611 159.021 62.9937 158.069 62.4189L160.117 57.7852C161.015 58.306 162.013 58.7284 163.108 59.0518C164.222 59.357 165.299 59.5097 166.341 59.5098C166.951 59.5098 167.427 59.4732 167.769 59.4014C168.128 59.3116 168.389 59.1955 168.551 59.0518C168.712 58.8901 168.793 58.7008 168.793 58.4854C168.793 58.1443 168.604 57.8752 168.227 57.6777C167.849 57.4802 167.346 57.3181 166.718 57.1924C166.107 57.0487 165.434 56.9054 164.697 56.7617C163.961 56.6001 163.215 56.393 162.461 56.1416C161.725 55.8902 161.043 55.5575 160.414 55.1445C159.803 54.7314 159.309 54.1929 158.932 53.5283C158.555 52.8459 158.366 52.0017 158.366 50.9961C158.366 49.8286 158.689 48.7684 159.336 47.8164C160.001 46.8465 160.979 46.0738 162.272 45.499C163.584 44.9242 165.21 44.6377 167.149 44.6377ZM50.2451 58.9971H58.7588V63.9277H43.8867V45.0684H50.2451V58.9971ZM99.3809 49.998H93.8584V63.9277H87.499V49.998H81.9766V45.0684H99.3809V49.998ZM108.469 63.9277H102.11V45.0684H108.469V63.9277ZM148.917 53.6436V45.0684H155.113V63.9277H149.887L142.72 55.3516V63.9277H136.522V45.0684H141.75L148.917 53.6436ZM29.8584 49.7832C29.2658 49.7832 28.7092 49.891 28.1885 50.1064C27.6855 50.322 27.236 50.6367 26.8408 51.0498C26.4638 51.4449 26.1676 51.9387 25.9521 52.5312C25.7366 53.106 25.6289 53.7616 25.6289 54.498C25.6289 55.2345 25.7366 55.8995 25.9521 56.4922C26.1677 57.0667 26.4638 57.5606 26.8408 57.9736C27.236 58.3688 27.6855 58.6741 28.1885 58.8896C28.7092 59.1051 29.2658 59.2129 29.8584 59.2129C30.4511 59.2129 30.999 59.1052 31.502 58.8896C32.0228 58.6741 32.4724 58.3688 32.8496 57.9736C33.2446 57.5606 33.5501 57.0668 33.7656 56.4922C33.9812 55.8995 34.0889 55.2345 34.0889 54.498C34.0889 53.7617 33.9811 53.106 33.7656 52.5312C33.5502 51.9387 33.2446 51.4449 32.8496 51.0498C32.4724 50.6367 32.0228 50.322 31.502 50.1064C30.999 49.8909 30.4511 49.7832 29.8584 49.7832ZM122.495 49.7832C121.903 49.7832 121.346 49.891 120.825 50.1064C120.322 50.322 119.873 50.6367 119.478 51.0498C119.1 51.4449 118.804 51.9387 118.589 52.5312C118.373 53.106 118.266 53.7616 118.266 54.498C118.266 55.2345 118.373 55.8995 118.589 56.4922C118.804 57.0667 119.1 57.5606 119.478 57.9736C119.873 58.3688 120.322 58.6741 120.825 58.8896C121.346 59.1051 121.903 59.2129 122.495 59.2129C123.088 59.2129 123.636 59.1052 124.139 58.8896C124.66 58.6741 125.109 58.3688 125.486 57.9736C125.881 57.5606 126.187 57.0668 126.402 56.4922C126.618 55.8995 126.726 55.2345 126.726 54.498C126.726 53.7617 126.618 53.106 126.402 52.5312C126.187 51.9387 125.881 51.4449 125.486 51.0498C125.109 50.6367 124.66 50.322 124.139 50.1064C123.636 49.8909 123.088 49.7832 122.495 49.7832Z" fill="#006DEA"/>
<path d="M171.996 75.3755C172.425 75.3755 172.807 75.4593 173.142 75.627C173.484 75.7947 173.753 76.0529 173.947 76.4017C174.142 76.7438 174.239 77.1864 174.239 77.7297V80.8083H172.981V77.8907C172.981 77.4145 172.867 77.059 172.639 76.8242C172.418 76.5895 172.106 76.4721 171.704 76.4721C171.409 76.4721 171.147 76.5325 170.919 76.6532C170.691 76.7739 170.513 76.955 170.386 77.1965C170.265 77.4312 170.205 77.7297 170.205 78.0919V80.8083H168.947V75.4359H170.144V76.8846L169.933 76.4419C170.121 76.0999 170.393 75.8383 170.748 75.6572C171.11 75.4694 171.526 75.3755 171.996 75.3755Z" fill="#006DEA"/>
<path d="M164.882 80.8787C164.332 80.8787 163.842 80.7614 163.413 80.5266C162.983 80.2851 162.645 79.9565 162.397 79.5406C162.148 79.1248 162.024 78.6519 162.024 78.1221C162.024 77.5855 162.148 77.1126 162.397 76.7035C162.645 76.2877 162.983 75.9624 163.413 75.7276C163.842 75.4929 164.332 75.3755 164.882 75.3755C165.438 75.3755 165.931 75.4929 166.36 75.7276C166.796 75.9624 167.135 76.2843 167.376 76.6934C167.625 77.1026 167.749 77.5788 167.749 78.1221C167.749 78.6519 167.625 79.1248 167.376 79.5406C167.135 79.9565 166.796 80.2851 166.36 80.5266C165.931 80.7614 165.438 80.8787 164.882 80.8787ZM164.882 79.8022C165.19 79.8022 165.465 79.7352 165.706 79.601C165.948 79.4669 166.136 79.2724 166.27 79.0175C166.411 78.7626 166.481 78.4641 166.481 78.1221C166.481 77.7733 166.411 77.4748 166.27 77.2267C166.136 76.9718 165.948 76.7773 165.706 76.6431C165.465 76.509 165.193 76.4419 164.892 76.4419C164.583 76.4419 164.308 76.509 164.067 76.6431C163.832 76.7773 163.644 76.9718 163.503 77.2267C163.362 77.4748 163.292 77.7733 163.292 78.1221C163.292 78.4641 163.362 78.7626 163.503 79.0175C163.644 79.2724 163.832 79.4669 164.067 79.601C164.308 79.7352 164.58 79.8022 164.882 79.8022Z" fill="#006DEA"/>
<path d="M159.553 80.8104V75.4379H160.81V80.8104H159.553ZM160.187 74.5526C159.952 74.5526 159.757 74.4788 159.603 74.3312C159.456 74.1837 159.382 74.0059 159.382 73.798C159.382 73.5834 159.456 73.4056 159.603 73.2648C159.757 73.1172 159.952 73.0435 160.187 73.0435C160.421 73.0435 160.613 73.1139 160.76 73.2547C160.914 73.3889 160.991 73.5599 160.991 73.7678C160.991 73.9892 160.918 74.177 160.77 74.3312C160.623 74.4788 160.428 74.5526 160.187 74.5526Z" fill="#006DEA"/>
<path d="M157.319 80.8766C156.729 80.8766 156.273 80.7257 155.951 80.4239C155.629 80.1154 155.468 79.6626 155.468 79.0657V74.2466H156.726V79.0355C156.726 79.2904 156.79 79.4882 156.917 79.6291C157.051 79.7699 157.236 79.8404 157.47 79.8404C157.752 79.8404 157.987 79.7666 158.175 79.619L158.527 80.5144C158.379 80.6352 158.198 80.7257 157.983 80.7861C157.769 80.8464 157.547 80.8766 157.319 80.8766ZM154.583 76.4801V75.474H158.164V76.4801H154.583Z" fill="#006DEA"/>
<path d="M152.5 80.8083V79.7217L152.429 79.4903V77.5889C152.429 77.22 152.319 76.9349 152.097 76.7337C151.876 76.5258 151.541 76.4218 151.091 76.4218C150.789 76.4218 150.491 76.4688 150.196 76.5627C149.908 76.6566 149.663 76.7873 149.462 76.955L148.969 76.0395C149.257 75.8182 149.599 75.6538 149.995 75.5465C150.397 75.4325 150.813 75.3755 151.242 75.3755C152.02 75.3755 152.62 75.5633 153.043 75.9389C153.472 76.3078 153.687 76.8812 153.687 77.6593V80.8083H152.5ZM150.81 80.8787C150.407 80.8787 150.055 80.8117 149.753 80.6775C149.451 80.5367 149.217 80.3455 149.049 80.104C148.888 79.8559 148.808 79.5775 148.808 79.269C148.808 78.9672 148.878 78.6955 149.019 78.4541C149.166 78.2126 149.405 78.0215 149.733 77.8806C150.062 77.7398 150.498 77.6693 151.041 77.6693H152.6V78.5044H151.132C150.702 78.5044 150.414 78.5748 150.266 78.7157C150.119 78.8498 150.045 79.0175 150.045 79.2187C150.045 79.4467 150.136 79.6278 150.317 79.762C150.498 79.8961 150.749 79.9632 151.071 79.9632C151.38 79.9632 151.655 79.8928 151.896 79.7519C152.144 79.6111 152.322 79.4031 152.429 79.1282L152.641 79.8827C152.52 80.1979 152.302 80.4428 151.987 80.6171C151.678 80.7915 151.286 80.8787 150.81 80.8787Z" fill="#006DEA"/>
<path d="M146.282 80.8191V73.354H147.54V80.8191H146.282Z" fill="#006DEA"/>
<path d="M143.379 80.8104V75.4379H144.637V80.8104H143.379ZM144.013 74.5526C143.778 74.5526 143.584 74.4788 143.429 74.3312C143.282 74.1837 143.208 74.0059 143.208 73.798C143.208 73.5834 143.282 73.4056 143.429 73.2648C143.584 73.1172 143.778 73.0435 144.013 73.0435C144.248 73.0435 144.439 73.1139 144.586 73.2547C144.741 73.3889 144.818 73.5599 144.818 73.7678C144.818 73.9892 144.744 74.177 144.596 74.3312C144.449 74.4788 144.254 74.5526 144.013 74.5526Z" fill="#006DEA"/>
<path d="M141.12 80.8766C140.53 80.8766 140.074 80.7257 139.752 80.4239C139.43 80.1154 139.269 79.6626 139.269 79.0657V74.2466H140.527V79.0355C140.527 79.2904 140.59 79.4882 140.718 79.6291C140.852 79.7699 141.036 79.8404 141.271 79.8404C141.553 79.8404 141.788 79.7666 141.975 79.619L142.327 80.5144C142.18 80.6352 141.999 80.7257 141.784 80.7861C141.57 80.8464 141.348 80.8766 141.12 80.8766ZM138.384 76.4801V75.474H141.965V76.4801H138.384Z" fill="#006DEA"/>
<path d="M135.279 75.3755C135.708 75.3755 136.09 75.4593 136.426 75.627C136.768 75.7947 137.036 76.0529 137.23 76.4017C137.425 76.7438 137.522 77.1864 137.522 77.7297V80.8083H136.265V77.8907C136.265 77.4145 136.151 77.059 135.923 76.8242C135.701 76.5895 135.389 76.4721 134.987 76.4721C134.692 76.4721 134.43 76.5325 134.202 76.6532C133.974 76.7739 133.797 76.955 133.669 77.1965C133.548 77.4312 133.488 77.7297 133.488 78.0919V80.8083H132.23V75.4359H133.428V76.8846L133.216 76.4419C133.404 76.0999 133.676 75.8383 134.031 75.6572C134.393 75.4694 134.809 75.3755 135.279 75.3755Z" fill="#006DEA"/>
<path d="M128.475 80.8787C127.878 80.8787 127.355 80.7614 126.905 80.5266C126.463 80.2851 126.117 79.9565 125.869 79.5406C125.628 79.1248 125.507 78.6519 125.507 78.1221C125.507 77.5855 125.624 77.1126 125.859 76.7035C126.1 76.2877 126.429 75.9624 126.845 75.7276C127.267 75.4929 127.747 75.3755 128.283 75.3755C128.807 75.3755 129.273 75.4895 129.682 75.7176C130.091 75.9456 130.413 76.2675 130.648 76.6834C130.882 77.0992 131 77.5889 131 78.1523C131 78.2059 130.996 78.2663 130.99 78.3334C130.99 78.4004 130.986 78.4641 130.98 78.5245H126.503V77.6895H130.316L129.823 77.951C129.829 77.6425 129.766 77.3709 129.632 77.1361C129.497 76.9014 129.313 76.7169 129.078 76.5828C128.85 76.4486 128.585 76.3816 128.283 76.3816C127.975 76.3816 127.703 76.4486 127.469 76.5828C127.241 76.7169 127.059 76.9047 126.925 77.1462C126.798 77.3809 126.734 77.6593 126.734 77.9812V78.1824C126.734 78.5044 126.808 78.7894 126.956 79.0376C127.103 79.2858 127.311 79.4769 127.579 79.6111C127.848 79.7452 128.156 79.8123 128.505 79.8123C128.807 79.8123 129.078 79.7653 129.32 79.6714C129.561 79.5775 129.776 79.43 129.964 79.2288L130.638 80.0034C130.396 80.2851 130.091 80.5031 129.722 80.6574C129.36 80.8049 128.944 80.8787 128.475 80.8787Z" fill="#006DEA"/>
<path d="M121.385 80.8126L118.307 73.77H119.725L122.472 80.1385H121.657L124.433 73.77H125.741L122.673 80.8126H121.385Z" fill="#006DEA"/>
<path d="M112.263 78.5385V77.4922H115.029V78.5385H112.263Z" fill="#006DEA"/>
<path d="M106.007 80.8787C105.41 80.8787 104.887 80.7614 104.437 80.5266C103.995 80.2851 103.649 79.9565 103.401 79.5406C103.16 79.1248 103.039 78.6519 103.039 78.1221C103.039 77.5855 103.156 77.1126 103.391 76.7035C103.633 76.2877 103.961 75.9624 104.377 75.7276C104.8 75.4929 105.279 75.3755 105.816 75.3755C106.339 75.3755 106.805 75.4895 107.214 75.7176C107.623 75.9456 107.945 76.2675 108.18 76.6834C108.415 77.0992 108.532 77.5889 108.532 78.1523C108.532 78.2059 108.529 78.2663 108.522 78.3334C108.522 78.4004 108.519 78.4641 108.512 78.5245H104.035V77.6895H107.848L107.355 77.951C107.362 77.6425 107.298 77.3709 107.164 77.1361C107.03 76.9014 106.845 76.7169 106.61 76.5828C106.382 76.4486 106.117 76.3816 105.816 76.3816C105.507 76.3816 105.236 76.4486 105.001 76.5828C104.773 76.7169 104.592 76.9047 104.458 77.1462C104.33 77.3809 104.266 77.6593 104.266 77.9812V78.1824C104.266 78.5044 104.34 78.7894 104.488 79.0376C104.635 79.2858 104.843 79.4769 105.111 79.6111C105.38 79.7452 105.688 79.8123 106.037 79.8123C106.339 79.8123 106.61 79.7653 106.852 79.6714C107.093 79.5775 107.308 79.43 107.496 79.2288L108.17 80.0034C107.928 80.2851 107.623 80.5031 107.254 80.6574C106.892 80.8049 106.476 80.8787 106.007 80.8787Z" fill="#006DEA"/>
<path d="M99.3701 80.8083V75.4359H100.567V76.9148L100.426 76.4822C100.587 76.12 100.839 75.845 101.181 75.6572C101.53 75.4694 101.962 75.3755 102.479 75.3755V76.5727C102.425 76.5593 102.375 76.5526 102.328 76.5526C102.281 76.5459 102.234 76.5425 102.187 76.5425C101.711 76.5425 101.332 76.6834 101.05 76.9651C100.768 77.2401 100.628 77.6526 100.628 78.2026V80.8083H99.3701Z" fill="#006DEA"/>
<path d="M96.4454 80.8104V75.4379H97.703V80.8104H96.4454ZM97.0792 74.5526C96.8445 74.5526 96.65 74.4788 96.4957 74.3312C96.3482 74.1837 96.2744 74.0059 96.2744 73.798C96.2744 73.5834 96.3482 73.4056 96.4957 73.2648C96.65 73.1172 96.8445 73.0435 97.0792 73.0435C97.314 73.0435 97.5051 73.1139 97.6527 73.2547C97.8069 73.3889 97.884 73.5599 97.884 73.7678C97.884 73.9892 97.8103 74.177 97.6627 74.3312C97.5152 74.4788 97.3207 74.5526 97.0792 74.5526Z" fill="#006DEA"/>
<path d="M93.6687 80.8083V79.7217L93.5983 79.4903V77.5889C93.5983 77.22 93.4876 76.9349 93.2663 76.7337C93.0449 76.5258 92.7096 76.4218 92.2602 76.4218C91.9584 76.4218 91.66 76.4688 91.3649 76.5627C91.0765 76.6566 90.8317 76.7873 90.6305 76.955L90.1375 76.0395C90.4259 75.8182 90.768 75.6538 91.1637 75.5465C91.5661 75.4325 91.9819 75.3755 92.4111 75.3755C93.1891 75.3755 93.7894 75.5633 94.2119 75.9389C94.6412 76.3078 94.8558 76.8812 94.8558 77.6593V80.8083H93.6687ZM91.9785 80.8787C91.5761 80.8787 91.224 80.8117 90.9222 80.6775C90.6204 80.5367 90.3857 80.3455 90.218 80.104C90.057 79.8559 89.9766 79.5775 89.9766 79.269C89.9766 78.9672 90.047 78.6955 90.1878 78.4541C90.3354 78.2126 90.5735 78.0215 90.9021 77.8806C91.2307 77.7398 91.6667 77.6693 92.2099 77.6693H93.7693V78.5044H92.3005C91.8712 78.5044 91.5829 78.5748 91.4353 78.7157C91.2878 78.8498 91.214 79.0175 91.214 79.2187C91.214 79.4467 91.3045 79.6278 91.4856 79.762C91.6667 79.8961 91.9182 79.9632 92.2401 79.9632C92.5486 79.9632 92.8236 79.8928 93.0651 79.7519C93.3132 79.6111 93.4909 79.4031 93.5983 79.1282L93.8095 79.8827C93.6888 80.1979 93.4708 80.4428 93.1556 80.6171C92.8471 80.7915 92.4547 80.8787 91.9785 80.8787Z" fill="#006DEA"/>
<path d="M88.0967 80.8766C87.5065 80.8766 87.0505 80.7257 86.7285 80.4239C86.4066 80.1154 86.2457 79.6626 86.2457 79.0657V74.2466H87.5032V79.0355C87.5032 79.2904 87.5669 79.4882 87.6943 79.6291C87.8285 79.7699 88.0129 79.8404 88.2476 79.8404C88.5293 79.8404 88.7641 79.7666 88.9519 79.619L89.304 80.5144C89.1564 80.6352 88.9753 80.7257 88.7607 80.7861C88.5461 80.8464 88.3248 80.8766 88.0967 80.8766ZM85.3604 76.4801V75.474H88.9418V76.4801H85.3604Z" fill="#006DEA"/>
<path d="M83.1847 80.8104V75.4379H84.4422V80.8104H83.1847ZM83.8185 74.5526C83.5837 74.5526 83.3893 74.4788 83.235 74.3312C83.0874 74.1837 83.0137 74.0059 83.0137 73.798C83.0137 73.5834 83.0874 73.4056 83.235 73.2648C83.3893 73.1172 83.5837 73.0435 83.8185 73.0435C84.0532 73.0435 84.2444 73.1139 84.3919 73.2547C84.5462 73.3889 84.6233 73.5599 84.6233 73.7678C84.6233 73.9892 84.5495 74.177 84.402 74.3312C84.2544 74.4788 84.0599 74.5526 83.8185 74.5526Z" fill="#006DEA"/>
<path d="M79.3441 75.3755C79.7734 75.3755 80.1557 75.4593 80.491 75.627C80.8331 75.7947 81.1013 76.0529 81.2958 76.4017C81.4903 76.7438 81.5876 77.1864 81.5876 77.7297V80.8083H80.33V77.8907C80.33 77.4145 80.216 77.059 79.988 76.8242C79.7667 76.5895 79.4548 76.4721 79.0524 76.4721C78.7573 76.4721 78.4957 76.5325 78.2677 76.6532C78.0397 76.7739 77.8619 76.955 77.7345 77.1965C77.6138 77.4312 77.5534 77.7297 77.5534 78.0919V80.8083H76.2959V75.4359H77.4931V76.8846L77.2818 76.4419C77.4696 76.0999 77.7412 75.8383 78.0967 75.6572C78.4588 75.4694 78.8747 75.3755 79.3441 75.3755Z" fill="#006DEA"/>
<path d="M73.487 80.8083V79.7217L73.4166 79.4903V77.5889C73.4166 77.22 73.3059 76.9349 73.0846 76.7337C72.8633 76.5258 72.528 76.4218 72.0786 76.4218C71.7768 76.4218 71.4783 76.4688 71.1832 76.5627C70.8948 76.6566 70.65 76.7873 70.4488 76.955L69.9559 76.0395C70.2443 75.8182 70.5863 75.6538 70.982 75.5465C71.3844 75.4325 71.8003 75.3755 72.2295 75.3755C73.0075 75.3755 73.6078 75.5633 74.0303 75.9389C74.4595 76.3078 74.6741 76.8812 74.6741 77.6593V80.8083H73.487ZM71.7969 80.8787C71.3945 80.8787 71.0424 80.8117 70.7406 80.6775C70.4388 80.5367 70.204 80.3455 70.0364 80.104C69.8754 79.8559 69.7949 79.5775 69.7949 79.269C69.7949 78.9672 69.8653 78.6955 70.0062 78.4541C70.1537 78.2126 70.3918 78.0215 70.7205 77.8806C71.0491 77.7398 71.485 77.6693 72.0283 77.6693H73.5876V78.5044H72.1188C71.6896 78.5044 71.4012 78.5748 71.2537 78.7157C71.1061 78.8498 71.0323 79.0175 71.0323 79.2187C71.0323 79.4467 71.1229 79.6278 71.304 79.762C71.485 79.8961 71.7365 79.9632 72.0585 79.9632C72.367 79.9632 72.642 79.8928 72.8834 79.7519C73.1316 79.6111 73.3093 79.4031 73.4166 79.1282L73.6279 79.8827C73.5071 80.1979 73.2892 80.4428 72.974 80.6171C72.6654 80.7915 72.2731 80.8787 71.7969 80.8787Z" fill="#006DEA"/>
<path d="M66.1682 80.9015C65.6183 80.9015 65.0918 80.8243 64.5888 80.6701C64.0858 80.5091 63.6867 80.3045 63.3916 80.0564L63.8443 79.0402C64.126 79.2616 64.4748 79.446 64.8906 79.5936C65.3064 79.7411 65.7323 79.8149 66.1682 79.8149C66.5371 79.8149 66.8356 79.7747 67.0636 79.6942C67.2916 79.6137 67.4593 79.5064 67.5666 79.3722C67.6739 79.2314 67.7276 79.0738 67.7276 78.8994C67.7276 78.6847 67.6504 78.5137 67.4962 78.3863C67.3419 78.2521 67.1407 78.1482 66.8926 78.0744C66.6511 77.9939 66.3795 77.9201 66.0777 77.8531C65.7826 77.786 65.4841 77.7089 65.1823 77.6217C64.8872 77.5278 64.6156 77.4104 64.3674 77.2695C64.126 77.122 63.9282 76.9275 63.7739 76.686C63.6196 76.4445 63.5425 76.136 63.5425 75.7604C63.5425 75.3781 63.6431 75.0293 63.8443 74.7141C64.0522 74.3922 64.3641 74.1373 64.7799 73.9495C65.2024 73.755 65.7356 73.6577 66.3795 73.6577C66.802 73.6577 67.2212 73.7114 67.637 73.8187C68.0529 73.926 68.415 74.0803 68.7235 74.2815L68.3111 75.2976C67.9958 75.1098 67.6706 74.9723 67.3352 74.8851C66.9999 74.7912 66.678 74.7443 66.3694 74.7443C66.0073 74.7443 65.7122 74.7879 65.4841 74.8751C65.2628 74.9623 65.0985 75.0763 64.9912 75.2171C64.8906 75.358 64.8403 75.519 64.8403 75.7001C64.8403 75.9147 64.9141 76.0891 65.0616 76.2232C65.2159 76.3506 65.4137 76.4513 65.6552 76.525C65.9033 76.5988 66.1783 76.6726 66.4801 76.7464C66.7819 76.8134 67.0804 76.8906 67.3755 76.9778C67.6773 77.065 67.9489 77.179 68.1903 77.3198C68.4385 77.4607 68.6363 77.6518 68.7839 77.8933C68.9382 78.1348 69.0153 78.4399 69.0153 78.8088C69.0153 79.1844 68.9113 79.5332 68.7034 79.8551C68.5022 80.1704 68.1903 80.4253 67.7678 80.6198C67.3453 80.8076 66.8121 80.9015 66.1682 80.9015Z" fill="#006DEA"/>
<path d="M56.9229 78.5385V77.4922H59.6894V78.5385H56.9229Z" fill="#006DEA"/>
<path d="M50.6934 80.8787C50.0965 80.8787 49.5733 80.7614 49.124 80.5266C48.6813 80.2851 48.3359 79.9565 48.0878 79.5406C47.8463 79.1248 47.7256 78.6519 47.7256 78.1221C47.7256 77.5855 47.843 77.1126 48.0777 76.7035C48.3191 76.2877 48.6478 75.9624 49.0636 75.7276C49.4861 75.4929 49.9657 75.3755 50.5022 75.3755C51.0253 75.3755 51.4915 75.4895 51.9006 75.7176C52.3097 75.9456 52.6316 76.2675 52.8664 76.6834C53.1011 77.0992 53.2185 77.5889 53.2185 78.1523C53.2185 78.2059 53.2151 78.2663 53.2084 78.3334C53.2084 78.4004 53.2051 78.4641 53.1984 78.5245H48.7216V77.6895H52.5344L52.0414 77.951C52.0481 77.6425 51.9844 77.3709 51.8503 77.1361C51.7162 76.9014 51.5317 76.7169 51.297 76.5828C51.0689 76.4486 50.804 76.3816 50.5022 76.3816C50.1937 76.3816 49.9221 76.4486 49.6873 76.5828C49.4593 76.7169 49.2782 76.9047 49.1441 77.1462C49.0166 77.3809 48.9529 77.6593 48.9529 77.9812V78.1824C48.9529 78.5044 49.0267 78.7894 49.1743 79.0376C49.3218 79.2858 49.5297 79.4769 49.798 79.6111C50.0663 79.7452 50.3748 79.8123 50.7235 79.8123C51.0253 79.8123 51.297 79.7653 51.5384 79.6714C51.7799 79.5775 51.9945 79.43 52.1823 79.2288L52.8563 80.0034C52.6149 80.2851 52.3097 80.5031 51.9408 80.6574C51.5787 80.8049 51.1628 80.8787 50.6934 80.8787Z" fill="#006DEA"/>
<path d="M43.5979 82.8305C43.1016 82.8305 42.6154 82.7634 42.1392 82.6293C41.6697 82.5019 41.2841 82.3141 40.9823 82.0659L41.5456 81.1202C41.7804 81.3147 42.0755 81.469 42.4309 81.583C42.7931 81.7037 43.1586 81.7641 43.5275 81.7641C44.1177 81.7641 44.5503 81.6266 44.8253 81.3516C45.1003 81.0833 45.2377 80.6775 45.2377 80.1342V79.1785L45.3384 77.9611L45.2981 76.7438V75.4359H46.4953V79.9934C46.4953 80.9659 46.2471 81.6802 45.7508 82.1363C45.2545 82.5991 44.5369 82.8305 43.5979 82.8305ZM43.437 80.5668C42.9272 80.5668 42.4645 80.4595 42.0487 80.2449C41.6395 80.0236 41.3143 79.7184 41.0728 79.3294C40.8381 78.9404 40.7207 78.4843 40.7207 77.9611C40.7207 77.4447 40.8381 76.9919 41.0728 76.6029C41.3143 76.2139 41.6395 75.9121 42.0487 75.6974C42.4645 75.4828 42.9272 75.3755 43.437 75.3755C43.893 75.3755 44.3021 75.466 44.6643 75.6471C45.0265 75.8282 45.3149 76.1099 45.5295 76.4922C45.7508 76.8745 45.8615 77.3642 45.8615 77.9611C45.8615 78.558 45.7508 79.051 45.5295 79.44C45.3149 79.8223 45.0265 80.1074 44.6643 80.2952C44.3021 80.4763 43.893 80.5668 43.437 80.5668ZM43.6281 79.5004C43.9433 79.5004 44.225 79.4367 44.4732 79.3092C44.7213 79.1751 44.9125 78.994 45.0466 78.766C45.1874 78.5312 45.2579 78.2629 45.2579 77.9611C45.2579 77.6593 45.1874 77.3943 45.0466 77.1663C44.9125 76.9316 44.7213 76.7538 44.4732 76.6331C44.225 76.5056 43.9433 76.4419 43.6281 76.4419C43.3129 76.4419 43.0278 76.5056 42.773 76.6331C42.5248 76.7538 42.3303 76.9316 42.1895 77.1663C42.0554 77.3943 41.9883 77.6593 41.9883 77.9611C41.9883 78.2629 42.0554 78.5312 42.1895 78.766C42.3303 78.994 42.5248 79.1751 42.773 79.3092C43.0278 79.4367 43.3129 79.5004 43.6281 79.5004Z" fill="#006DEA"/>
<path d="M38.3767 80.8083V79.7217L38.3063 79.4903V77.5889C38.3063 77.22 38.1956 76.9349 37.9743 76.7337C37.7529 76.5258 37.4176 76.4218 36.9682 76.4218C36.6664 76.4218 36.368 76.4688 36.0729 76.5627C35.7845 76.6566 35.5397 76.7873 35.3385 76.955L34.8455 76.0395C35.1339 75.8182 35.476 75.6538 35.8717 75.5465C36.2741 75.4325 36.6899 75.3755 37.1191 75.3755C37.8971 75.3755 38.4974 75.5633 38.9199 75.9389C39.3492 76.3078 39.5638 76.8812 39.5638 77.6593V80.8083H38.3767ZM36.6866 80.8787C36.2841 80.8787 35.932 80.8117 35.6302 80.6775C35.3284 80.5367 35.0937 80.3455 34.926 80.104C34.7651 79.8559 34.6846 79.5775 34.6846 79.269C34.6846 78.9672 34.755 78.6955 34.8958 78.4541C35.0434 78.2126 35.2815 78.0215 35.6101 77.8806C35.9387 77.7398 36.3747 77.6693 36.9179 77.6693H38.4773V78.5044H37.0085C36.5792 78.5044 36.2909 78.5748 36.1433 78.7157C35.9958 78.8498 35.922 79.0175 35.922 79.2187C35.922 79.4467 36.0125 79.6278 36.1936 79.762C36.3747 79.8961 36.6262 79.9632 36.9481 79.9632C37.2566 79.9632 37.5316 79.8928 37.7731 79.7519C38.0212 79.6111 38.1989 79.4031 38.3063 79.1282L38.5175 79.8827C38.3968 80.1979 38.1788 80.4428 37.8636 80.6171C37.5551 80.7915 37.1627 80.8787 36.6866 80.8787Z" fill="#006DEA"/>
<path d="M31.6148 80.8002V75.1259C31.6148 74.5625 31.7791 74.1131 32.1077 73.7777C32.4431 73.4357 32.9193 73.2646 33.5363 73.2646C33.7576 73.2646 33.9655 73.2881 34.16 73.3351C34.3612 73.382 34.5289 73.4558 34.663 73.5564L34.321 74.5021C34.2271 74.4283 34.1198 74.3747 33.9991 74.3412C33.8783 74.3009 33.7543 74.2808 33.6268 74.2808C33.3653 74.2808 33.1674 74.3546 33.0333 74.5021C32.8991 74.643 32.8321 74.8576 32.8321 75.146V75.7497L32.8723 76.3131V80.8002H31.6148ZM30.7295 76.474V75.468H34.3109V76.474H30.7295Z" fill="#006DEA"/>
<path d="M27.8775 80.8002V75.1259C27.8775 74.5625 28.0418 74.1131 28.3704 73.7777C28.7058 73.4357 29.182 73.2646 29.799 73.2646C30.0203 73.2646 30.2282 73.2881 30.4227 73.3351C30.6239 73.382 30.7916 73.4558 30.9257 73.5564L30.5837 74.5021C30.4898 74.4283 30.3825 74.3747 30.2618 74.3412C30.141 74.3009 30.017 74.2808 29.8895 74.2808C29.628 74.2808 29.4301 74.3546 29.296 74.5021C29.1618 74.643 29.0948 74.8576 29.0948 75.146V75.7497L29.135 76.3131V80.8002H27.8775ZM26.9922 76.474V75.468H30.5736V76.474H26.9922Z" fill="#006DEA"/>
<path d="M23.1107 80.8794C22.6547 80.8794 22.2523 80.7956 21.9035 80.6279C21.5547 80.4535 21.2831 80.1919 21.0886 79.8431C20.8941 79.4877 20.7969 79.0416 20.7969 78.5051V75.4365H22.0544V78.334C22.0544 78.8169 22.1617 79.1791 22.3763 79.4206C22.5977 79.6553 22.9095 79.7727 23.3119 79.7727C23.607 79.7727 23.8619 79.7124 24.0765 79.5916C24.2978 79.4709 24.4689 79.2898 24.5896 79.0483C24.717 78.8069 24.7807 78.5084 24.7807 78.1529V75.4365H26.0383V80.809H24.8411V79.3602L25.0524 79.8029C24.8713 80.1517 24.6064 80.42 24.2576 80.6078C23.9088 80.7889 23.5266 80.8794 23.1107 80.8794Z" fill="#006DEA"/>
<path d="M18.0554 80.8083V79.7217L17.985 79.4903V77.5889C17.985 77.22 17.8743 76.9349 17.653 76.7337C17.4317 76.5258 17.0963 76.4218 16.647 76.4218C16.3451 76.4218 16.0467 76.4688 15.7516 76.5627C15.4632 76.6566 15.2184 76.7873 15.0172 76.955L14.5242 76.0395C14.8126 75.8182 15.1547 75.6538 15.5504 75.5465C15.9528 75.4325 16.3686 75.3755 16.7979 75.3755C17.5758 75.3755 18.1761 75.5633 18.5986 75.9389C19.0279 76.3078 19.2425 76.8812 19.2425 77.6593V80.8083H18.0554ZM16.3653 80.8787C15.9629 80.8787 15.6108 80.8117 15.3089 80.6775C15.0071 80.5367 14.7724 80.3455 14.6047 80.104C14.4438 79.8559 14.3633 79.5775 14.3633 79.269C14.3633 78.9672 14.4337 78.6955 14.5745 78.4541C14.7221 78.2126 14.9602 78.0215 15.2888 77.8806C15.6175 77.7398 16.0534 77.6693 16.5967 77.6693H18.156V78.5044H16.6872C16.258 78.5044 15.9696 78.5748 15.822 78.7157C15.6745 78.8498 15.6007 79.0175 15.6007 79.2187C15.6007 79.4467 15.6912 79.6278 15.8723 79.762C16.0534 79.8961 16.3049 79.9632 16.6268 79.9632C16.9353 79.9632 17.2103 79.8928 17.4518 79.7519C17.6999 79.6111 17.8777 79.4031 17.985 79.1282L18.1962 79.8827C18.0755 80.1979 17.8575 80.4428 17.5423 80.6171C17.2338 80.7915 16.8415 80.8787 16.3653 80.8787Z" fill="#006DEA"/>
<path d="M10.9076 75.3863C11.3369 75.3863 11.7192 75.4701 12.0545 75.6378C12.3965 75.8055 12.6648 76.0637 12.8593 76.4125C13.0538 76.7545 13.1511 77.1972 13.1511 77.7405V80.8191H11.8935V77.9015C11.8935 77.4253 11.7795 77.0698 11.5515 76.835C11.3302 76.6003 11.0183 76.4829 10.6159 76.4829C10.3208 76.4829 10.0592 76.5433 9.83118 76.664C9.60315 76.7847 9.42542 76.9658 9.29799 77.2073C9.17727 77.442 9.1169 77.7405 9.1169 78.1027V80.8191H7.85938V73.354H9.1169V76.8954L8.84528 76.4527C9.03307 76.1107 9.3047 75.8491 9.66016 75.668C10.0223 75.4802 10.4381 75.3863 10.9076 75.3863Z" fill="#006DEA"/>
<path d="M3.92366 80.9015C3.38712 80.9015 2.88746 80.8143 2.42469 80.6399C1.96862 80.4588 1.56957 80.2073 1.22752 79.8853C0.892177 79.5567 0.63061 79.171 0.442819 78.7283C0.255028 78.2857 0.161133 77.8028 0.161133 77.2796C0.161133 76.7564 0.255028 76.2735 0.442819 75.8308C0.63061 75.3882 0.89553 75.0059 1.23758 74.6839C1.57963 74.3553 1.97868 74.1037 2.43475 73.9294C2.89081 73.7483 3.39047 73.6577 3.93372 73.6577C4.51051 73.6577 5.03699 73.7583 5.51318 73.9595C5.98936 74.154 6.39177 74.4458 6.72041 74.8348L5.87535 75.6296C5.62049 75.3546 5.33545 75.1501 5.02023 75.0159C4.70501 74.8751 4.36296 74.8046 3.99408 74.8046C3.62521 74.8046 3.28651 74.865 2.978 74.9857C2.67619 75.1065 2.41127 75.2775 2.18324 75.4988C1.96192 75.7202 1.78754 75.9818 1.66011 76.2836C1.53939 76.5854 1.47902 76.9174 1.47902 77.2796C1.47902 77.6418 1.53939 77.9738 1.66011 78.2756C1.78754 78.5774 1.96192 78.839 2.18324 79.0603C2.41127 79.2817 2.67619 79.4527 2.978 79.5734C3.28651 79.6942 3.62521 79.7545 3.99408 79.7545C4.36296 79.7545 4.70501 79.6875 5.02023 79.5533C5.33545 79.4125 5.62049 79.2012 5.87535 78.9195L6.72041 79.7244C6.39177 80.1067 5.98936 80.3984 5.51318 80.5996C5.03699 80.8009 4.50715 80.9015 3.92366 80.9015Z" fill="#006DEA"/>
<path d="M113.76 35.1771C120.481 36.267 125.763 33.6145 130.074 31.4597C134.59 29.2022 138.018 27.5215 142.242 28.1397C144.55 28.4775 146.529 29.169 148.549 30.0025C150.467 30.7938 152.747 31.868 155.069 32.6188C160.156 34.2636 165.934 34.59 174.649 31.076L172.308 25.2691C164.848 28.2768 160.582 27.8207 156.996 26.6611C154.981 26.0098 153.267 25.1763 150.937 24.215C148.71 23.2957 146.189 22.3894 143.149 21.9446C136.677 20.9975 131.497 23.7486 127.274 25.8597C122.845 28.0734 119.258 29.7263 114.762 28.9972C112.677 28.6592 110.874 27.6629 108.898 26.1832C107.895 25.432 106.926 24.6192 105.83 23.7182C104.763 22.8416 103.6 21.9029 102.341 21.0356C99.7898 19.2768 96.7534 17.7438 92.8748 17.3304C89.0155 16.9192 84.6241 17.6476 79.3799 19.8851L81.8367 25.6436C86.3751 23.7072 89.6793 23.2863 92.2114 23.5562C94.724 23.824 96.7747 24.8025 98.7882 26.1903C99.8126 26.8964 100.802 27.6903 101.855 28.5555C102.878 29.3962 103.997 30.3346 105.145 31.1947C107.474 32.938 110.235 34.6056 113.76 35.1771Z" fill="#F08000"/>
<path d="M173.739 8.34783C173.739 7.19523 172.805 6.26087 171.653 6.26087C170.5 6.26087 169.566 7.19523 169.566 8.34783C169.566 9.50042 170.5 10.4348 171.653 10.4348C172.805 10.4348 173.739 9.50042 173.739 8.34783ZM180 8.34783C180 12.9582 176.263 16.6957 171.653 16.6957C167.042 16.6957 163.305 12.9582 163.305 8.34783C163.305 3.73745 167.042 0 171.653 0C176.263 0 180 3.73745 180 8.34783Z" fill="#EF7F00"/>
</svg>
